<svg width="317" height="329" viewBox="0 0 317 329" fill="none" xmlns="http://www.w3.org/2000/svg">
<path d="M186.18 14.5234C182.981 10.191 178.81 6.66994 174.003 4.2435C169.195 1.81705 163.885 0.552979 158.5 0.552979C153.115 0.552979 147.805 1.81705 142.997 4.2435C138.19 6.66994 134.019 10.191 130.82 14.5234C126.556 20.3007 120.591 24.5991 113.761 26.8162C106.931 29.0333 99.5789 29.0579 92.7344 26.8866C87.5988 25.2609 82.1533 24.8638 76.8362 25.7271C71.5191 26.5905 66.479 28.6903 62.1217 31.8574C57.7644 35.0245 54.2115 39.1704 51.7493 43.9614C49.287 48.7525 47.984 54.0547 47.9453 59.4413C47.8903 66.6185 45.5921 73.5987 41.3726 79.4047C37.1531 85.2108 31.2235 89.5519 24.4141 91.8202C19.3029 93.5225 14.6629 96.4013 10.8676 100.225C7.0724 104.048 4.22799 108.709 2.56344 113.833C0.898903 118.956 0.460747 124.399 1.28426 129.723C2.10777 135.047 4.16993 140.103 7.3047 144.484C11.4807 150.323 13.7259 157.322 13.7259 164.5C13.7259 171.678 11.4807 178.677 7.3047 184.516C4.16993 188.897 2.10777 193.953 1.28426 199.277C0.460747 204.601 0.898903 210.044 2.56344 215.167C4.22799 220.291 7.0724 224.952 10.8676 228.775C14.6629 232.599 19.3029 235.477 24.4141 237.18C31.2235 239.448 37.1531 243.789 41.3726 249.595C45.5921 255.401 47.8903 262.381 47.9453 269.559C47.9835 274.946 49.2865 280.25 51.7494 285.042C54.2124 289.835 57.7664 293.981 62.1252 297.149C66.484 300.316 71.5258 302.415 76.8444 303.278C82.163 304.14 87.6098 303.741 92.7461 302.113C99.5891 299.945 106.939 299.971 113.766 302.188C120.594 304.405 126.557 308.701 130.82 314.477C134.019 318.809 138.19 322.33 142.997 324.756C147.805 327.183 153.115 328.447 158.5 328.447C163.885 328.447 169.195 327.183 174.003 324.756C178.81 322.33 182.981 318.809 186.18 314.477C190.444 308.699 196.409 304.401 203.239 302.184C210.069 299.967 217.421 299.942 224.266 302.113C229.401 303.739 234.847 304.136 240.164 303.273C245.481 302.409 250.521 300.31 254.878 297.142C259.236 293.975 262.788 289.829 265.251 285.038C267.713 280.247 269.016 274.945 269.055 269.559C269.11 262.381 271.408 255.401 275.627 249.595C279.847 243.789 285.777 239.448 292.586 237.18C297.697 235.477 302.337 232.599 306.132 228.775C309.928 224.952 312.772 220.291 314.437 215.167C316.101 210.044 316.539 204.601 315.716 199.277C314.892 193.953 312.83 188.897 309.695 184.516C305.519 178.677 303.274 171.678 303.274 164.5C303.274 157.322 305.519 150.323 309.695 144.484C312.83 140.103 314.892 135.047 315.716 129.723C316.539 124.399 316.101 118.956 314.437 113.833C312.772 108.709 309.928 104.048 306.132 100.225C302.337 96.4013 297.697 93.5225 292.586 91.8202C285.777 89.5519 279.847 85.2108 275.627 79.4047C271.408 73.5987 269.11 66.6185 269.055 59.4413C269.017 54.0534 267.714 48.7497 265.251 43.9575C262.788 39.1653 259.234 35.0185 254.875 31.8511C250.516 28.6838 245.474 26.5844 240.156 25.7221C234.837 24.8598 229.39 25.2587 224.254 26.8866C217.411 29.0552 210.061 29.0292 203.234 26.8122C196.406 24.5953 190.443 20.2984 186.18 14.5234ZM97.1875 270.695C38.5352 236.828 18.4375 161.828 52.3047 103.187C86.1719 44.5351 161.172 24.4374 219.813 58.3046C278.465 92.1718 298.563 167.172 264.695 225.812C230.828 284.465 155.828 304.562 97.1875 270.695Z" fill="#FF9F1C"/>
<path fill-rule="evenodd" clip-rule="evenodd" d="M159 288C227.485 288 283 232.485 283 164C283 95.5147 227.485 39.9999 159 39.9999C90.5148 39.9999 35 95.5147 35 164C35 232.485 90.5148 288 159 288ZM225.6 124.754C226.181 124.156 226.634 123.448 226.935 122.671C227.235 121.894 227.376 121.065 227.348 120.233C227.321 119.4 227.126 118.582 226.776 117.826C226.425 117.071 225.926 116.394 225.308 115.835C224.69 115.277 223.966 114.849 223.179 114.576C222.392 114.304 221.558 114.193 220.727 114.25C219.896 114.307 219.086 114.531 218.343 114.908C217.601 115.285 216.942 115.808 216.406 116.446L142.136 198.515L101.278 159.511C100.089 158.375 98.4976 157.757 96.8535 157.795C95.2094 157.832 93.6474 158.521 92.5112 159.71C91.375 160.898 90.7575 162.49 90.7947 164.134C90.832 165.778 91.5207 167.34 92.7096 168.476L142.787 216.278L225.6 124.754Z" fill="#F9DBBD"/>
</svg>
