<svg width="44" height="44" viewBox="0 0 44 44" fill="none" xmlns="http://www.w3.org/2000/svg">
<rect x="0.5" y="0.5" width="43" height="43" rx="9.5" stroke="#FFD7A1"/>
<path d="M10.1052 30.2084L7.16505 28.6746C6.80516 28.4868 6.57947 28.1143 6.57947 27.7082V16.5545C6.57947 16.1468 6.80688 15.7731 7.16888 15.5861L21.1819 8.34604C21.4839 8.19 21.8414 8.18404 22.1484 8.32992L37.2099 15.4861C37.5897 15.6666 37.8318 16.0498 37.8318 16.4707V27.7383C37.8318 28.1285 37.6234 28.4889 37.2853 28.6833L34.3452 30.3737C33.6192 30.791 32.7138 30.2666 32.7138 29.4287V19.0998C32.7138 18.672 32.4637 18.2838 32.0744 18.1072L22.1403 13.6014C21.8376 13.4641 21.4889 13.4726 21.1933 13.6246L12.2888 18.2022C11.9257 18.3888 11.6974 18.7631 11.6974 19.1716V29.242C11.6974 30.0602 10.8301 30.5866 10.1052 30.2084Z" fill="url(#paint0_linear_308_1174)"/>
<path d="M23.0223 18.0703C23.0223 18.6722 22.5348 19.1601 21.9334 19.1601C21.332 19.1601 20.8445 18.6722 20.8445 18.0703C20.8445 17.4684 21.332 16.9804 21.9334 16.9804C22.5348 16.9804 23.0223 17.4684 23.0223 18.0703Z" fill="url(#paint1_linear_308_1174)"/>
<path fill-rule="evenodd" clip-rule="evenodd" d="M26.7247 29.7313C29.3709 29.7313 31.516 27.5845 31.516 24.9361C31.516 22.2878 29.3709 20.1409 26.7247 20.1409C24.0785 20.1409 21.9334 22.2878 21.9334 24.9361C21.9334 27.5845 24.0785 29.7313 26.7247 29.7313ZM26.6625 27.8631C28.312 27.8631 29.6493 26.5248 29.6493 24.8739C29.6493 23.223 28.312 21.8846 26.6625 21.8846C25.0129 21.8846 23.6757 23.223 23.6757 24.8739C23.6757 26.5248 25.0129 27.8631 26.6625 27.8631Z" fill="url(#paint2_linear_308_1174)"/>
<path d="M14.2047 31.135C14.203 31.5444 14.4307 31.9202 14.7942 32.1079L17.6771 33.5971C18.4019 33.9715 19.2655 33.4449 19.2655 32.6287V22.5398C19.2655 21.7199 18.3949 21.1936 17.6698 21.5752L14.8163 23.0769C14.4598 23.2645 14.2358 23.6338 14.2342 24.0369L14.2047 31.135Z" fill="url(#paint3_linear_308_1174)"/>
<path d="M15.7238 20.1639C15.0569 20.5211 14.2508 20.0355 14.2539 19.2785C14.2555 18.9046 14.4655 18.5628 14.7982 18.3927L17.8604 16.827C18.503 16.4985 19.2655 16.9656 19.2655 17.6878C19.2655 18.0442 19.0695 18.3717 18.7555 18.54L15.7238 20.1639Z" fill="url(#paint4_linear_308_1174)"/>
<defs>
<linearGradient id="paint0_linear_308_1174" x1="12.5066" y1="13.7905" x2="28.1259" y2="32.8279" gradientUnits="userSpaceOnUse">
<stop stop-color="#FF9F1C"/>
<stop offset="1" stop-color="#FFD7A1"/>
</linearGradient>
<linearGradient id="paint1_linear_308_1174" x1="12.5066" y1="13.7905" x2="28.1259" y2="32.8279" gradientUnits="userSpaceOnUse">
<stop stop-color="#FF9F1C"/>
<stop offset="1" stop-color="#FFD7A1"/>
</linearGradient>
<linearGradient id="paint2_linear_308_1174" x1="12.5066" y1="13.7905" x2="28.1259" y2="32.8279" gradientUnits="userSpaceOnUse">
<stop stop-color="#FF9F1C"/>
<stop offset="1" stop-color="#FFD7A1"/>
</linearGradient>
<linearGradient id="paint3_linear_308_1174" x1="12.5066" y1="13.7905" x2="28.1259" y2="32.8279" gradientUnits="userSpaceOnUse">
<stop stop-color="#FF9F1C"/>
<stop offset="1" stop-color="#FFD7A1"/>
</linearGradient>
<linearGradient id="paint4_linear_308_1174" x1="12.5066" y1="13.7905" x2="28.1259" y2="32.8279" gradientUnits="userSpaceOnUse">
<stop stop-color="#FF9F1C"/>
<stop offset="1" stop-color="#FFD7A1"/>
</linearGradient>
</defs>
</svg>
