<svg width="749" height="1012" viewBox="0 0 749 1012" fill="none" xmlns="http://www.w3.org/2000/svg">
<rect width="746" height="1012" transform="translate(3)" fill="white"/>
<g opacity="0.2">
<circle cx="191.5" cy="784.5" r="188.5" stroke="#FFD7A1" stroke-width="6"/>
<path d="M77.7011 874.912L49.2787 860.096C45.9738 858.373 43.9012 854.956 43.9012 851.229V745.419C43.9012 741.678 45.9895 738.25 49.3139 736.534L182.191 667.936C184.965 666.505 188.248 666.45 191.067 667.788L333.875 735.586C337.364 737.242 339.587 740.759 339.587 744.62V851.505C339.587 855.086 337.672 858.393 334.568 860.176L306.146 876.504C299.479 880.334 291.164 875.521 291.164 867.833V769.471C291.164 765.546 288.868 761.983 285.292 760.363L190.993 717.626C188.213 716.366 185.01 716.445 182.296 717.839L97.7545 761.265C94.42 762.977 92.3235 766.411 92.3235 770.16V866.045C92.3235 873.552 84.3586 878.383 77.7011 874.912Z" fill="#FFD7A1" stroke="#FFD7A1" stroke-width="3"/>
<path d="M197.971 759.933C197.971 764.795 194.03 768.736 189.168 768.736C184.307 768.736 180.366 764.795 180.366 759.933C180.366 755.072 184.307 751.131 189.168 751.131C194.03 751.131 197.971 755.072 197.971 759.933Z" fill="#FFD7A1" stroke="#FFD7A1" stroke-width="3"/>
<mask id="path-4-inside-1_173_1053" fill="white">
<path fill-rule="evenodd" clip-rule="evenodd" d="M234.5 870.171C259.536 870.171 279.831 849.875 279.831 824.839C279.831 799.803 259.536 779.508 234.5 779.508C209.464 779.508 189.168 799.803 189.168 824.839C189.168 849.875 209.464 870.171 234.5 870.171ZM233.911 852.509C249.518 852.509 262.17 839.857 262.17 824.251C262.17 808.644 249.518 795.992 233.911 795.992C218.304 795.992 205.652 808.644 205.652 824.251C205.652 839.857 218.304 852.509 233.911 852.509Z"/>
</mask>
<path fill-rule="evenodd" clip-rule="evenodd" d="M234.5 870.171C259.536 870.171 279.831 849.875 279.831 824.839C279.831 799.803 259.536 779.508 234.5 779.508C209.464 779.508 189.168 799.803 189.168 824.839C189.168 849.875 209.464 870.171 234.5 870.171ZM233.911 852.509C249.518 852.509 262.17 839.857 262.17 824.251C262.17 808.644 249.518 795.992 233.911 795.992C218.304 795.992 205.652 808.644 205.652 824.251C205.652 839.857 218.304 852.509 233.911 852.509Z" fill="#FFD7A1"/>
<path d="M276.831 824.839C276.831 848.218 257.879 867.171 234.5 867.171V873.171C261.193 873.171 282.831 851.532 282.831 824.839H276.831ZM234.5 782.508C257.879 782.508 276.831 801.46 276.831 824.839H282.831C282.831 798.147 261.193 776.508 234.5 776.508V782.508ZM192.168 824.839C192.168 801.46 211.121 782.508 234.5 782.508V776.508C207.807 776.508 186.168 798.147 186.168 824.839H192.168ZM234.5 867.171C211.121 867.171 192.168 848.218 192.168 824.839H186.168C186.168 851.532 207.807 873.171 234.5 873.171V867.171ZM259.17 824.251C259.17 838.201 247.861 849.509 233.911 849.509V855.509C251.175 855.509 265.17 841.514 265.17 824.251H259.17ZM233.911 798.992C247.861 798.992 259.17 810.301 259.17 824.251H265.17C265.17 806.987 251.175 792.992 233.911 792.992V798.992ZM208.652 824.251C208.652 810.301 219.961 798.992 233.911 798.992V792.992C216.647 792.992 202.652 806.987 202.652 824.251H208.652ZM233.911 849.509C219.961 849.509 208.652 838.201 208.652 824.251H202.652C202.652 841.514 216.647 855.509 233.911 855.509V849.509Z" fill="#FFD7A1" mask="url(#path-4-inside-1_173_1053)"/>
<path fill-rule="evenodd" clip-rule="evenodd" d="M121.671 807.348C118.397 809.07 116.34 812.459 116.325 816.158L116.045 883.626C116.029 887.383 118.12 890.831 121.458 892.554L149.34 906.945C155.996 910.38 163.927 905.548 163.927 898.058V801.686C163.927 794.162 155.932 789.333 149.273 792.835L121.671 807.348ZM159.101 764.374C162.072 762.784 163.927 759.687 163.927 756.318C163.927 749.491 156.712 745.075 150.633 748.181L121.661 762.981C118.512 764.59 116.526 767.821 116.511 771.356C116.481 778.512 124.108 783.102 130.417 779.726L159.101 764.374Z" fill="#FFD7A1"/>
<path d="M149.34 906.945L148.652 908.278L149.34 906.945ZM121.458 892.554L120.771 893.887L121.458 892.554ZM117.545 883.633L117.825 816.164L114.825 816.152L114.545 883.62L117.545 883.633ZM150.028 905.612L122.146 891.221L120.771 893.887L148.652 908.278L150.028 905.612ZM162.427 801.686V898.058H165.427V801.686H162.427ZM148.575 791.507L120.973 806.021L122.369 808.676L149.971 794.162L148.575 791.507ZM122.343 764.317L151.315 749.516L149.95 746.845L120.978 761.646L122.343 764.317ZM131.125 781.048L159.809 765.696L158.393 763.051L129.71 778.403L131.125 781.048ZM115.011 771.35C114.976 779.642 123.814 784.961 131.125 781.048L129.71 778.403C124.402 781.244 117.986 777.382 118.011 771.362L115.011 771.35ZM120.978 761.646C117.33 763.509 115.028 767.254 115.011 771.35L118.011 771.362C118.023 768.388 119.695 765.67 122.343 764.317L120.978 761.646ZM162.427 756.318C162.427 759.134 160.877 761.722 158.393 763.051L159.809 765.696C163.268 763.845 165.427 760.241 165.427 756.318H162.427ZM165.427 756.318C165.427 748.37 157.028 743.229 149.95 746.845L151.315 749.516C156.397 746.92 162.427 750.611 162.427 756.318H165.427ZM165.427 801.686C165.427 793.034 156.232 787.48 148.575 791.507L149.971 794.162C155.631 791.186 162.427 795.291 162.427 801.686H165.427ZM148.652 908.278C156.307 912.228 165.427 906.672 165.427 898.058H162.427C162.427 904.425 155.686 908.532 150.028 905.612L148.652 908.278ZM117.825 816.164C117.838 813.02 119.586 810.139 122.369 808.676L120.973 806.021C117.207 808.001 114.843 811.897 114.825 816.152L117.825 816.164ZM114.545 883.62C114.527 887.94 116.932 891.906 120.771 893.887L122.146 891.221C119.309 889.757 117.532 886.826 117.545 883.633L114.545 883.62Z" fill="#FFD7A1"/>
</g>
<g opacity="0.2">
<circle cx="557.5" cy="223.5" r="188.5" stroke="#FFD7A1" stroke-width="6"/>
<path d="M443.701 313.912L415.279 299.096C411.974 297.373 409.901 293.956 409.901 290.229V184.419C409.901 180.678 411.99 177.25 415.314 175.534L548.191 106.936C550.965 105.505 554.248 105.45 557.067 106.788L699.875 174.586C703.364 176.242 705.587 179.759 705.587 183.62V290.505C705.587 294.085 703.672 297.393 700.568 299.176L672.146 315.504C665.479 319.334 657.164 314.521 657.164 306.833V208.471C657.164 204.546 654.868 200.983 651.292 199.363L556.993 156.626C554.213 155.366 551.01 155.445 548.296 156.839L463.754 200.265C460.42 201.977 458.324 205.411 458.324 209.16V305.045C458.324 312.552 450.359 317.383 443.701 313.912Z" fill="#FFD7A1" stroke="#FFD7A1" stroke-width="3"/>
<path d="M563.971 198.933C563.971 203.795 560.03 207.736 555.168 207.736C550.307 207.736 546.366 203.795 546.366 198.933C546.366 194.072 550.307 190.131 555.168 190.131C560.03 190.131 563.971 194.072 563.971 198.933Z" fill="#FFD7A1" stroke="#FFD7A1" stroke-width="3"/>
<mask id="path-11-inside-2_173_1053" fill="white">
<path fill-rule="evenodd" clip-rule="evenodd" d="M600.5 309.171C625.536 309.171 645.831 288.875 645.831 263.839C645.831 238.803 625.536 218.508 600.5 218.508C575.464 218.508 555.168 238.803 555.168 263.839C555.168 288.875 575.464 309.171 600.5 309.171ZM599.911 291.509C615.518 291.509 628.17 278.857 628.17 263.251C628.17 247.644 615.518 234.992 599.911 234.992C584.304 234.992 571.652 247.644 571.652 263.251C571.652 278.857 584.304 291.509 599.911 291.509Z"/>
</mask>
<path fill-rule="evenodd" clip-rule="evenodd" d="M600.5 309.171C625.536 309.171 645.831 288.875 645.831 263.839C645.831 238.803 625.536 218.508 600.5 218.508C575.464 218.508 555.168 238.803 555.168 263.839C555.168 288.875 575.464 309.171 600.5 309.171ZM599.911 291.509C615.518 291.509 628.17 278.857 628.17 263.251C628.17 247.644 615.518 234.992 599.911 234.992C584.304 234.992 571.652 247.644 571.652 263.251C571.652 278.857 584.304 291.509 599.911 291.509Z" fill="#FFD7A1"/>
<path d="M642.831 263.839C642.831 287.218 623.879 306.171 600.5 306.171V312.171C627.193 312.171 648.831 290.532 648.831 263.839H642.831ZM600.5 221.508C623.879 221.508 642.831 240.46 642.831 263.839H648.831C648.831 237.147 627.193 215.508 600.5 215.508V221.508ZM558.168 263.839C558.168 240.46 577.121 221.508 600.5 221.508V215.508C573.807 215.508 552.168 237.147 552.168 263.839H558.168ZM600.5 306.171C577.121 306.171 558.168 287.218 558.168 263.839H552.168C552.168 290.532 573.807 312.171 600.5 312.171V306.171ZM625.17 263.251C625.17 277.201 613.861 288.509 599.911 288.509V294.509C617.175 294.509 631.17 280.514 631.17 263.251H625.17ZM599.911 237.992C613.861 237.992 625.17 249.301 625.17 263.251H631.17C631.17 245.987 617.175 231.992 599.911 231.992V237.992ZM574.652 263.251C574.652 249.301 585.961 237.992 599.911 237.992V231.992C582.647 231.992 568.652 245.987 568.652 263.251H574.652ZM599.911 288.509C585.961 288.509 574.652 277.201 574.652 263.251H568.652C568.652 280.514 582.647 294.509 599.911 294.509V288.509Z" fill="#FFD7A1" mask="url(#path-11-inside-2_173_1053)"/>
<path fill-rule="evenodd" clip-rule="evenodd" d="M487.671 246.348C484.397 248.07 482.34 251.458 482.325 255.158L482.045 322.626C482.029 326.383 484.12 329.831 487.458 331.554L515.34 345.945C521.996 349.38 529.927 344.548 529.927 337.058V240.686C529.927 233.162 521.932 228.333 515.273 231.835L487.671 246.348ZM525.101 203.374C528.072 201.784 529.927 198.687 529.927 195.318C529.927 188.49 522.712 184.075 516.633 187.181L487.661 201.981C484.512 203.59 482.526 206.821 482.511 210.356C482.481 217.512 490.108 222.102 496.417 218.726L525.101 203.374Z" fill="#FFD7A1"/>
<path d="M515.34 345.945L514.652 347.278L515.34 345.945ZM487.458 331.554L486.771 332.887L487.458 331.554ZM483.545 322.633L483.825 255.164L480.825 255.152L480.545 322.62L483.545 322.633ZM516.028 344.612L488.146 330.221L486.771 332.887L514.652 347.278L516.028 344.612ZM528.427 240.686V337.058H531.427V240.686H528.427ZM514.575 230.507L486.973 245.021L488.369 247.676L515.971 233.162L514.575 230.507ZM488.343 203.317L517.315 188.516L515.95 185.845L486.978 200.646L488.343 203.317ZM497.125 220.048L525.809 204.696L524.393 202.051L495.71 217.403L497.125 220.048ZM481.011 210.35C480.976 218.642 489.814 223.961 497.125 220.048L495.71 217.403C490.402 220.244 483.986 216.382 484.011 210.362L481.011 210.35ZM486.978 200.646C483.33 202.509 481.028 206.254 481.011 210.35L484.011 210.362C484.023 207.388 485.695 204.67 488.343 203.317L486.978 200.646ZM528.427 195.318C528.427 198.134 526.877 200.722 524.393 202.051L525.809 204.696C529.268 202.845 531.427 199.241 531.427 195.318H528.427ZM531.427 195.318C531.427 187.37 523.028 182.229 515.95 185.845L517.315 188.516C522.397 185.92 528.427 189.611 528.427 195.318H531.427ZM531.427 240.686C531.427 232.034 522.232 226.48 514.575 230.507L515.971 233.162C521.631 230.186 528.427 234.291 528.427 240.686H531.427ZM514.652 347.278C522.307 351.228 531.427 345.672 531.427 337.058H528.427C528.427 343.425 521.686 347.532 516.028 344.612L514.652 347.278ZM483.825 255.164C483.838 252.02 485.586 249.139 488.369 247.676L486.973 245.021C483.207 247 480.843 250.897 480.825 255.152L483.825 255.164ZM480.545 322.62C480.527 326.94 482.932 330.906 486.771 332.887L488.146 330.221C485.309 328.757 483.532 325.826 483.545 322.633L480.545 322.62Z" fill="#FFD7A1"/>
</g>
</svg>
